<mxfile host="app.diagrams.net" modified="2024-04-15T12:35:14.035Z" agent="Mozilla/5.0 (Macintosh; Intel Mac OS X 10_15_7) AppleWebKit/537.36 (KHTML, like Gecko) Chrome/119.0.0.0 Safari/537.36" version="24.2.3" etag="dLisoWoGyop_5s9Tb5rZ" type="github">
  <diagram name="Seite-1" id="a0AIT1ruRza4FfLQH2j2">
    <mxGraphModel>
      <root>
        <mxCell id="0" />
        <mxCell id="1" parent="0" />
      </root>
    </mxGraphModel>
  </diagram>
</mxfile>
